<?xml version="1.0" encoding="utf-8"?>
<!-- Generator: Adobe Illustrator 18.0.0, SVG Export Plug-In . SVG Version: 6.00 Build 0)  -->
<!DOCTYPE svg PUBLIC "-//W3C//DTD SVG 1.1//EN" "http://www.w3.org/Graphics/SVG/1.1/DTD/svg11.dtd">
<svg version="1.1" id="图层_1" xmlns="http://www.w3.org/2000/svg" xmlns:xlink="http://www.w3.org/1999/xlink" x="0px" y="0px"
	 viewBox="0 0 124 62" enable-background="new 0 0 124 62" xml:space="preserve">
<g>
	<polygon fill="#D41A1A" points="0,0 0,46.8 0,62 36.2,62 36.2,0 	"/>
	<path fill="#FFFFFF" d="M25,18.1H11.2c-0.5,0-0.9,0.4-0.9,0.9v3.3c0,0.5,0.4,0.9,0.9,0.9h4.3v17.1c0,0.5,0.4,0.9,0.9,0.9h3.4
		c0.5,0,0.9-0.4,0.9-0.9V23.3H25c0.5,0,0.9-0.4,0.9-0.9V19C25.8,18.5,25.5,18.1,25,18.1"/>
	<path fill="#FFFFFF" d="M24.6,44.7h-13c-0.5,0-0.8,0.4-0.8,0.9v3.3c0,0.5,0.4,0.9,0.8,0.9h13c0.5,0,0.8-0.4,0.8-0.9v-3.3
		C25.4,45.1,25,44.7,24.6,44.7"/>
	<path fill="#FFFFFF" d="M14.4,14l6.7,1.4c0.3,0.1,0.6-0.1,0.7-0.4l0.5-1.8c0.1-0.3-0.1-0.6-0.4-0.7l-6.5-2
		c-0.3-0.1-0.6,0.1-0.7,0.4l-0.6,2.3C13.8,13.6,14,13.9,14.4,14"/>
</g>
<g>
	<path fill="#333" d="M54.6,37.8h-2.4l-1-3h-4.8l-1,3h-1.9l4.1-12.5h2.8L54.6,37.8z M50.6,33l-1.8-5.6L47,33H50.6z"/>
	<path fill="#333" d="M62.7,33.4l2.1,0.2c-0.1,1.2-0.6,2.3-1.4,3.1C62.5,37.5,61.4,38,60,38c-1.1,0-2.1-0.3-2.8-0.9
		c-0.7-0.6-1.3-1.3-1.6-2.3c-0.4-1-0.6-2.1-0.6-3.2c0-1.9,0.5-3.4,1.4-4.6s2.1-1.8,3.7-1.8c1.2,0,2.3,0.4,3.1,1.1
		c0.8,0.8,1.3,1.9,1.6,3.3l-2.1,0.2c-0.4-1.9-1.2-2.8-2.5-2.8c-0.8,0-1.5,0.4-2,1.2c-0.5,0.8-0.7,1.9-0.7,3.4c0,1.5,0.2,2.6,0.7,3.4
		c0.5,0.8,1.2,1.2,2,1.2c0.7,0,1.2-0.3,1.7-0.8C62.3,34.8,62.6,34.2,62.7,33.4z"/>
	<path fill="#333" d="M76.2,37.8h-2.4l-1-3H68l-1,3h-1.9l4.1-12.5H72L76.2,37.8z M72.2,33l-1.8-5.6L68.6,33H72.2z"/>
	<path fill="#333" d="M77.6,37.8V25.3h4.6c1.7,0,3.1,0.6,4.1,1.8c1,1.2,1.5,2.7,1.5,4.5s-0.5,3.2-1.6,4.4
		c-1.1,1.2-2.6,1.8-4.5,1.8H77.6z M80,35.9h1.9c1,0,1.9-0.4,2.6-1.1s1.1-1.9,1.1-3.4c0-1.2-0.3-2.2-0.9-3.1
		c-0.6-0.8-1.4-1.3-2.4-1.3H80V35.9z"/>
	<path fill="#333" d="M98.1,37.8H90V25.3h8v1.9h-5.8v3.4h4.6v1.8h-4.6v3.5h5.9V37.8z"/>
	<path fill="#333" d="M112.2,37.8h-2.3V26.9l-3.5,10.9h-1.2l-3.5-10.9v10.9H100V25.3h3.5l2.6,8l2.6-8h3.5V37.8z"/>
	<path fill="#333" d="M120,37.8h-2.4v-5.3l-4.2-7.2h2.7l3,5.1l2.8-5.1h2.2l-4,7.2V37.8z"/>
</g>
<g>
	<path fill="#333" d="M44.4,47.7h6.2c0.1-0.9,0.2-1.8,0.2-2.7v-1.4h1.6v1.1c0,1.1-0.1,2.1-0.2,3.1h6.6v1.5h-6.2
		c1.1,3.5,3.3,6.1,6.5,8l-1,1.2c-3.1-1.9-5.3-4.6-6.5-8c-1.1,3.7-3.3,6.4-6.5,8.2l-1-1.3c3.3-1.6,5.4-4.3,6.3-8.1h-5.9V47.7z"/>
	<path fill="#333" d="M61.5,44.7h5.5c0.1-0.3,0.1-0.7,0.2-1.2l1.5,0.2l-0.2,1h5.6V46h-5.9l-0.3,1h5.4v1.3h-5.9
		c-0.1,0.2-0.3,0.6-0.5,1h8.1v1.4h-3.1c0.8,0.9,2,1.6,3.6,2.1l-0.6,1.3c-2.1-0.9-3.6-2-4.5-3.5h-4.3c-1.2,1.6-2.8,2.8-4.7,3.8
		l-0.8-1.3c1.4-0.6,2.7-1.5,3.6-2.5h-3.3v-1.4h4.3c0.2-0.2,0.4-0.6,0.6-1h-3.3V47h3.9c0.2-0.5,0.3-0.8,0.4-1h-5.1V44.7z M65.5,58.5
		l-0.3-1.4c0.5,0.1,1,0.1,1.5,0.1c0.3,0,0.5-0.2,0.5-0.5v-1.4c-1.4,1-3,1.9-4.9,2.6l-0.8-1.3c2.1-0.7,4-1.6,5.6-2.8v-2.5h1.5v2.6
		c0.2,0.1,0.5,0.2,0.9,0.3c0.6-0.7,1-1.3,1.4-1.9l1.2,0.6c-0.4,0.6-0.9,1.3-1.4,1.8c1.2,0.5,2.3,1.1,3.4,1.8l-0.8,1.3
		c-1.5-1-3.1-1.8-4.6-2.5v1.8c0,1-0.5,1.4-1.6,1.4H65.5z M64.6,52.6c0.6,0.6,1.1,1.1,1.4,1.6l-1.1,0.7c-0.3-0.4-0.8-1-1.4-1.5
		L64.6,52.6z"/>
	<path fill="#333" d="M91,46.8v3.9h-1.5v-2.4h-11v2.4h-1.5v-3.9h2.9c-0.5-0.9-1.1-1.7-1.6-2.3l1.4-0.7c0.6,0.8,1.1,1.6,1.6,2.5
		l-1,0.5h6.1c0.6-1,1.2-2.1,1.7-3.3l1.6,0.6c-0.6,1.1-1.1,2-1.6,2.7H91z M79.6,49.3h8.8v1.4c-1,0.6-2.1,1.3-3.4,1.9v0.6h6v1.5h-6
		v2.5c0,1-0.5,1.4-1.5,1.4h-2.1L81,57.1c0.8,0,1.4,0,1.9,0c0.3,0,0.5-0.2,0.5-0.6v-1.9H77v-1.5h6.4v-1.2c1.1-0.5,2-0.9,2.7-1.2h-6.5
		V49.3z M83.5,43.4c0.6,0.8,1.1,1.7,1.5,2.6l-1.4,0.7c-0.5-1-1-1.9-1.6-2.6L83.5,43.4z"/>
	<path fill="#333" d="M93.2,44.2h4.9v1.2c-0.4,1.4-0.9,2.9-1.5,4.4c0.9,1.5,1.4,2.8,1.4,3.9c0,0.7-0.2,1.3-0.5,1.7
		c-0.4,0.4-1.2,0.6-2.3,0.6l-0.5-1.6c0.3,0.1,0.6,0.1,0.8,0.1c0.4,0,0.6-0.1,0.7-0.2c0.1-0.1,0.2-0.3,0.2-0.6c0-1.1-0.5-2.3-1.4-3.7
		c0.6-1.6,1.1-3.1,1.5-4.4h-1.9v13h-1.5V44.2z M98.6,50.9h8.8v1.5h-2.6v4c0,0.4,0.1,0.6,0.4,0.6h0.5c0.1,0,0.2-0.1,0.3-0.2
		c0.1-0.1,0.2-0.8,0.2-2l1.4,0.5c-0.1,1.5-0.3,2.4-0.5,2.7c-0.2,0.2-0.6,0.4-1.2,0.4h-1.3c-0.5,0-0.8-0.2-1-0.5
		c-0.3-0.3-0.4-0.7-0.4-1.2v-4.3h-1.2c-0.1,1.7-0.4,2.9-0.8,3.6c-0.5,1-1.4,1.8-2.6,2.5l-1-1.3c1-0.6,1.8-1.2,2.2-2
		c0.4-0.6,0.6-1.6,0.7-2.9h-2V50.9z M107.3,44.9v3.5H106v1h-6.2v-1h-1.3v-3.5h3.5c-0.2-0.5-0.3-0.8-0.5-1.2l1.6-0.3
		c0.2,0.4,0.3,0.8,0.5,1.4H107.3z M100,48h5.8v-1.6H100V48z"/>
</g>
<g>
	<path fill="#333" d="M51,8.2c-1-0.5-2.2-0.8-3.6-0.8h-2.7c-0.2,0-0.3,0.1-0.3,0.3v11.4c0,0.2,0.1,0.3,0.3,0.3h2.5
		c2,0,3.6-0.5,4.7-1.5c1.2-1.1,1.9-2.6,1.9-4.6c0-0.9-0.1-1.7-0.4-2.4C53,9.7,52.2,8.8,51,8.2 M47.3,17.5h-0.8V9.3h0.7
		c1.4,0,2.6,0.3,3.4,0.9c0.8,0.7,1.3,1.7,1.3,3.1c0,1.3-0.4,2.4-1.2,3.1C49.8,17.2,48.7,17.5,47.3,17.5"/>
	<path fill="#333" d="M63.3,7.1c0-0.1-0.2-0.2-0.3-0.2c-0.1,0-0.2,0.1-0.3,0.2L57.4,19c0,0.1,0,0.2,0,0.3
		c0.1,0.1,0.1,0.1,0.2,0.1h1.7c0.1,0,0.2-0.1,0.3-0.2l1.2-2.7h4.3l1.2,2.7c0,0.1,0.2,0.2,0.3,0.2h1.7c0.1,0,0.2-0.1,0.3-0.1
		c0.1-0.1,0.1-0.2,0-0.3L63.3,7.1z M64.4,14.6h-2.7l1.4-3.1L64.4,14.6z"/>
	<path fill="#333" d="M76.8,7.4h-6.9c-0.2,0-0.3,0.1-0.3,0.3V9c0,0.2,0.1,0.3,0.3,0.3h2.4v9.8c0,0.2,0.1,0.3,0.3,0.3h1.5
		c0.2,0,0.3-0.1,0.3-0.3V9.3h2.4c0.2,0,0.3-0.1,0.3-0.3V7.7C77.1,7.6,77,7.4,76.8,7.4"/>
	<path fill="#333" d="M83.9,7.1c0-0.1-0.2-0.2-0.3-0.2c-0.1,0-0.2,0.1-0.3,0.2L78,19c0,0.1,0,0.2,0,0.3c0.1,0.1,0.2,0.1,0.2,0.1
		H80c0.1,0,0.2-0.1,0.3-0.2l1.2-2.7h4.3l1.2,2.7c0,0.1,0.2,0.2,0.3,0.2h1.7c0.1,0,0.2-0.1,0.2-0.1c0.1-0.1,0.1-0.2,0-0.3L83.9,7.1z
		 M84.9,14.6h-2.7l1.4-3.1L84.9,14.6z"/>
	<path fill="#333" d="M92.9,7.4h-1.5c-0.2,0-0.3,0.1-0.3,0.3v11.4c0,0.2,0.1,0.3,0.3,0.3h1.5c0.2,0,0.3-0.1,0.3-0.3V7.7
		C93.2,7.6,93.1,7.4,92.9,7.4"/>
	<path fill="#333" d="M71.7,5.2l3,0.6c0.1,0,0.3,0,0.3-0.2l0.2-0.8c0-0.1,0-0.3-0.2-0.3l-2.9-0.9c-0.1,0-0.3,0.1-0.3,0.2l-0.3,1
		C71.4,5,71.5,5.2,71.7,5.2"/>
</g>
</svg>
